<?xml version="1.0" encoding="UTF-8"?>
<svg width="700pt" height="700pt" version="1.1" viewBox="0 0 700 700" xmlns="http://www.w3.org/2000/svg" xmlns:xlink="http://www.w3.org/1999/xlink">
 <g>
  <path fill="white" d="m70 0v338.68l221.32 221.32h338.68v-560zm440.48 360.24h-187.23v-53.496h-213.98v-267.47h481.45v481.45h-267.47v-106.99h187.23c14.785 0 26.738-11.969 26.738-26.746 0.003907-14.789-11.957-26.75-26.742-26.75zm-213.98-26.746v176.15l-176.16-176.15zm-133.73-213.98c0-14.789 11.961-26.75 26.746-26.75h320.97c14.785 0 26.738 11.961 26.738 26.75 0 14.785-11.961 26.746-26.738 26.746h-320.97c-14.785 0-26.746-11.965-26.746-26.746zm374.46 133.73c0 14.785-11.961 26.746-26.738 26.746h-320.98c-14.785 0-26.746-11.961-26.746-26.746s11.961-26.746 26.746-26.746h320.97c14.785-0.003906 26.746 11.961 26.746 26.746z"/>
  <use x="70" y="644" xlink:href="#t"/>
  <use x="90.550781" y="644" xlink:href="#b"/>
  <use x="104.359375" y="644" xlink:href="#a"/>
  <use x="123.347656" y="644" xlink:href="#d"/>
  <use x="142.242188" y="644" xlink:href="#c"/>
  <use x="155.628906" y="644" xlink:href="#a"/>
  <use x="174.617188" y="644" xlink:href="#i"/>
  <use x="204.410156" y="644" xlink:href="#g"/>
  <use x="224.453125" y="644" xlink:href="#h"/>
  <use x="252.453125" y="644" xlink:href="#g"/>
  <use x="282.242188" y="644" xlink:href="#f"/>
  <use x="294.421875" y="644" xlink:href="#d"/>
  <use x="313.320312" y="644" xlink:href="#b"/>
  <use x="327.125" y="644" xlink:href="#s"/>
  <use x="336.726562" y="644" xlink:href="#d"/>
  <use x="355.617188" y="644" xlink:href="#r"/>
  <use x="70" y="672" xlink:href="#f"/>
  <use x="82.183594" y="672" xlink:href="#b"/>
  <use x="95.992188" y="672" xlink:href="#e"/>
  <use x="115.226562" y="672" xlink:href="#q"/>
  <use x="154.152344" y="672" xlink:href="#c"/>
  <use x="167.535156" y="672" xlink:href="#p"/>
  <use x="187.46875" y="672" xlink:href="#a"/>
  <use x="216.207031" y="672" xlink:href="#o"/>
  <use x="239.640625" y="672" xlink:href="#e"/>
  <use x="258.878906" y="672" xlink:href="#n"/>
  <use x="278.8125" y="672" xlink:href="#m"/>
  <use x="308.492188" y="672" xlink:href="#l"/>
  <use x="329.015625" y="672" xlink:href="#b"/>
  <use x="342.820312" y="672" xlink:href="#e"/>
  <use x="362.058594" y="672" xlink:href="#k"/>
  <use x="371.65625" y="672" xlink:href="#a"/>
  <use x="390.648438" y="672" xlink:href="#j"/>
  <use x="407.242188" y="672" xlink:href="#c"/>
 </g>
</svg>
